<?xml version="1.0" encoding="UTF-8"?>
<svg xmlns="http://www.w3.org/2000/svg" xmlns:xlink="http://www.w3.org/1999/xlink" width="367pt" height="231pt" viewBox="0 0 367 231">
<path fill-rule="nonzero" fill="#FFFFFF" fill-opacity="1" d="M 2.027344 211.441406 L 2.035156 100.058594 L 35.992188 100.105469 C 42.265625 100.121094 47.21875 105.335938 47.222656 111.421875 L 47.257812 157.464844 C 47.261719 164.957031 41.429688 170.144531 34 170.339844 C 36.882812 173.054688 38.609375 175.492188 39.746094 178.699219 L 51.503906 211.828125 L 39.996094 211.773438 L 19.914062 160.515625 L 31.886719 160.355469 C 33.519531 160.332031 36.027344 157.957031 36.03125 156.585938 L 36.046875 114.296875 C 36.046875 112.863281 33.675781 110.1875 32.222656 110.191406 L 12.789062 110.253906 L 12.796875 211.625 Z M 2.027344 211.441406 "/>
<path fill-rule="nonzero" fill="#FFFFFF" fill-opacity="1" d="M 250.496094 3.441406 L 249.738281 11.445312 L 228.011719 11.445312 L 228.003906 49.441406 L 248.210938 49.4375 L 248.214844 57.449219 L 227.953125 57.441406 L 228.125 85.78125 L 240.425781 81.550781 C 205.605469 105.28125 187.257812 134.960938 171.140625 172.695312 C 173.738281 159.949219 178.789062 148.851562 183.511719 137.0625 L 183.53125 100.300781 L 194.5 100.214844 L 194.484375 117.582031 C 202.402344 107.792969 210.132812 99.558594 219.503906 92.292969 L 220.398438 3.453125 Z M 250.496094 3.441406 "/>
<path fill-rule="nonzero" fill="#FFFFFF" fill-opacity="1" d="M 191.421875 3.449219 C 196.027344 4.78125 198.746094 8.277344 198.75 13.808594 L 198.769531 40.089844 L 189.847656 40.089844 L 189.59375 12.316406 C 182.738281 11.085938 177.390625 10.875 171.042969 12.6875 L 171.015625 83.234375 C 174.90625 86.257812 183.652344 85.816406 189.671875 83.957031 L 189.8125 56.769531 L 198.769531 56.769531 L 198.75 83.136719 C 198.742188 95.164062 185.355469 93.640625 170.601562 92.984375 C 165.421875 92.75 161.808594 88.558594 161.804688 83.40625 L 161.75 14.476562 C 161.746094 8.800781 164.027344 5.296875 169.402344 3.449219 Z M 191.421875 3.449219 "/>
<path fill-rule="nonzero" fill="#FFFFFF" fill-opacity="1" d="M 32.429688 3.453125 C 36.351562 5.234375 39.0625 8.296875 39.054688 13.433594 L 39.015625 39.410156 L 30.070312 39.4375 L 29.921875 12.621094 C 23.789062 10.882812 18.378906 10.933594 12.175781 12.675781 C 11.605469 21.164062 11.644531 28.660156 12.503906 36.820312 L 35.875 61.730469 C 37.230469 63.175781 39.285156 67.226562 39.265625 69.3125 L 39.125 84.476562 C 39.078125 89.117188 34.175781 93.097656 29.722656 93.105469 L 11.410156 93.144531 C 8.902344 93.148438 3.28125 90.066406 3.246094 87.484375 L 2.90625 64.234375 L 11.433594 64.289062 L 11.679688 83.980469 C 17.121094 85.59375 23.394531 86.09375 29.042969 84.050781 C 31.71875 80.1875 31.339844 71.582031 27.875 67.71875 L 7.460938 44.9375 C 5.003906 42.195312 3.042969 38.320312 3.03125 34.550781 L 2.976562 14.433594 C 2.960938 8.625 5.757812 4.832031 11.433594 3.453125 Z M 32.429688 3.453125 "/>
<path fill-rule="nonzero" fill="#FFFFFF" fill-opacity="1" d="M 87.046875 48.613281 L 87.046875 15.257812 C 86.949219 13.78125 84.699219 11.449219 83.28125 11.449219 L 68.253906 11.453125 L 68.253906 52.414062 L 83.296875 52.507812 C 84.878906 52.519531 86.996094 50.300781 87.046875 48.613281 M 89.425781 3.445312 C 93.730469 5.269531 96.113281 8.984375 96.082031 14.4375 L 95.890625 50.269531 C 95.867188 54.660156 92.765625 60.449219 88.105469 60.507812 L 68.265625 60.75 L 68.242188 93.257812 L 59.507812 92.875 L 60.425781 3.449219 Z M 89.425781 3.445312 "/>
<path fill-rule="nonzero" fill="#FFFFFF" fill-opacity="1" d="M 130.4375 3.445312 L 146.429688 93.097656 L 137.527344 93.125 L 134.898438 79.804688 L 121.375 70.542969 L 133.839844 70.1875 L 125.296875 23.03125 L 113.320312 93.179688 L 104.09375 93.160156 L 121.410156 3.445312 Z M 130.4375 3.445312 "/>
<path fill-rule="nonzero" fill="#FFFFFF" fill-opacity="1" d="M 231.773438 211.707031 L 221.296875 211.859375 L 221.160156 125.117188 C 210.902344 139.976562 202.097656 154.675781 194.734375 171.03125 L 194.496094 212.003906 L 183.648438 212.195312 L 183.242188 197.175781 L 172.960938 227.558594 C 176.46875 201.339844 184.214844 176.664062 195.699219 153.132812 C 204.382812 135.339844 215.613281 119.90625 229.136719 105.542969 C 248.828125 84.628906 273.714844 69.359375 302.085938 63.429688 C 276.578125 72.910156 253.375 86.765625 235.136719 107.839844 L 257.511719 178.953125 L 257.789062 100.089844 L 268.496094 100.214844 L 268.496094 211.671875 L 257.171875 212.003906 L 232.191406 131.328125 Z M 231.773438 211.707031 "/>
<path fill-rule="nonzero" fill="#FFFFFF" fill-opacity="1" d="M 309.863281 201.863281 L 330.21875 202.007812 L 330.265625 170.335938 L 318.90625 160.550781 L 341.015625 160.433594 L 340.984375 211.460938 C 337.601562 213.324219 333.929688 210.953125 332.871094 207.097656 C 330.523438 208.984375 326.976562 211.84375 324.257812 211.8125 L 306.074219 211.589844 C 299.835938 211.511719 295.253906 206.410156 295.253906 200.191406 L 295.246094 111.675781 C 295.246094 105.546875 299.707031 100.253906 306.058594 100.234375 L 330.027344 100.15625 C 335.5625 100.136719 340.882812 104.878906 340.914062 110.417969 L 341.054688 139.65625 L 329.984375 139.664062 L 330.03125 114.273438 C 330.03125 112.890625 327.601562 110.203125 326.242188 110.203125 L 309.769531 110.226562 C 308.320312 110.230469 306.234375 112.808594 306.230469 114.460938 L 306.226562 197.425781 C 306.226562 198.90625 308.363281 201.855469 309.863281 201.863281 "/>
<path fill-rule="nonzero" fill="#FFFFFF" fill-opacity="1" d="M 156.640625 199.609375 C 156.601562 206.046875 151.328125 211.460938 145.039062 211.695312 C 137.148438 211.984375 129.949219 211.960938 121.910156 211.738281 C 117.183594 211.605469 111.042969 207.640625 110.984375 202.46875 L 110.6875 174.042969 L 121.742188 173.933594 L 121.796875 196.621094 C 121.800781 199.316406 124.375 202.054688 127.105469 202.015625 L 140.300781 201.820312 C 144.910156 201.753906 145.609375 197.980469 145.699219 194.570312 C 145.875 188.148438 145.246094 183.070312 141.015625 178.390625 L 115.84375 150.542969 C 113.078125 147.484375 111.25 142.40625 111.265625 138.316406 L 111.386719 111.804688 C 111.417969 105.0625 117.390625 99.960938 123.9375 100 L 145.066406 100.125 C 150.582031 100.15625 156.070312 104.796875 156.113281 110.425781 L 156.328125 139.636719 L 145.226562 139.632812 L 145.285156 115.277344 C 145.289062 112.511719 142.9375 110.113281 140.238281 110.136719 L 126.757812 110.265625 C 124.777344 110.285156 122.179688 113.285156 122.195312 115.273438 L 122.34375 135.515625 C 122.363281 138.257812 123.867188 142.5 125.800781 144.550781 L 151.117188 171.382812 C 154.464844 174.929688 156.765625 179.875 156.738281 184.742188 Z M 156.640625 199.609375 "/>
<path fill-rule="nonzero" fill="#FFFFFF" fill-opacity="1" d="M 84.792969 211.648438 L 73.785156 211.722656 L 73.785156 100.164062 L 84.773438 100 Z M 84.792969 211.648438 "/>
<path fill-rule="nonzero" fill="#FFFFFF" fill-opacity="1" d="M 331.917969 61.070312 L 335.5625 56.519531 C 336.28125 55.625 333.144531 53.699219 331.902344 53.660156 L 315.875 53.117188 C 329.347656 49.929688 342.667969 47.972656 357.761719 50.550781 C 348.996094 54.582031 341.117188 57.765625 331.917969 61.070312 "/>
<path fill-rule="nonzero" fill="#FFFFFF" fill-opacity="1" d="M 346.265625 102.429688 L 342.578125 102.429688 L 342.578125 101.097656 L 351.5625 101.097656 L 351.5625 102.429688 L 347.851562 102.429688 L 347.851562 113.234375 L 346.265625 113.234375 Z M 346.265625 102.429688 "/>
<path fill-rule="nonzero" fill="#FFFFFF" fill-opacity="1" d="M 363.136719 107.90625 C 363.042969 106.210938 362.9375 104.175781 362.953125 102.664062 L 362.902344 102.664062 C 362.488281 104.089844 361.984375 105.597656 361.371094 107.273438 L 359.230469 113.164062 L 358.039062 113.164062 L 356.078125 107.382812 C 355.5 105.671875 355.015625 104.105469 354.671875 102.664062 L 354.636719 102.664062 C 354.601562 104.175781 354.511719 106.210938 354.402344 108.03125 L 354.078125 113.234375 L 352.582031 113.234375 L 353.429688 101.097656 L 355.429688 101.097656 L 357.5 106.96875 C 358.003906 108.464844 358.417969 109.796875 358.722656 111.054688 L 358.777344 111.054688 C 359.082031 109.832031 359.515625 108.5 360.058594 106.96875 L 362.21875 101.097656 L 364.214844 101.097656 L 364.972656 113.234375 L 363.441406 113.234375 Z M 363.136719 107.90625 "/>
</svg>
